# xmcd
#
# Track frame offsets:
# 150
# 1875
# 25268
# 49412
# 51374
# 72983
# 93310
# 123761
# 141600
# 142736
# 157975
# 180303
# 208947
# 210125
# 239551
# 262019
#
# Disc length: 3839 seconds
#
# Revision: 0
# Processed by: cddbd v1.5.1PL2 Copyright (c) Steve Scherf et al.
# Submitted via: Audion 3.0.2 (http://www.panic.com/audion/)
#
DISCID=e20efd10
DTITLE=Reva L'Sheva - Etz Chai m hi
DYEAR=1900
DGENRE=
TTITLE0=Our radio
TTITLE1=Show me the way
TTITLE2=With every breath
TTITLE3=Drum circle
TTITLE4=Secrets
TTITLE5=The server
TTITLE6=Bt the waters of Babylon
TTITLE7=So good
TTITLE8=Chevra
TTITLE9=Immobile
TTITLE10=Master of the world
TTITLE11=Every thing
TTITLE12=Song of songs
TTITLE13=Sparklin' in Your gowns of faith
TTITLE14=The Land's end
TTITLE15=The rain forest song
EXTD=
EXTT0=
EXTT1=
EXTT2=
EXTT3=
EXTT4=
EXTT5=
EXTT6=
EXTT7=
EXTT8=
EXTT9=
EXTT10=
EXTT11=
EXTT12=
EXTT13=
EXTT14=
EXTT15=
PLAYORDER=
